grf
version=1
nRows=19
nColumns=37
inDegrees=no
endheader
time	ground_force_1_vx	ground_force_1_vy	ground_force_1_vz	ground_force_1_px	ground_force_1_py	ground_force_1_pz	ground_moment_1_mx	ground_moment_1_my	ground_moment_1_mz	ground_force_2_vx	ground_force_2_vy	ground_force_2_vz	ground_force_2_px	ground_force_2_py	ground_force_2_pz	ground_moment_2_mx	ground_moment_2_my	ground_moment_2_mz	ground_force_3_vx	ground_force_3_vy	ground_force_3_vz	ground_force_3_px	ground_force_3_py	ground_force_3_pz	ground_moment_3_mx	ground_moment_3_my	ground_moment_3_mz	ground_force_4_vx	ground_force_4_vy	ground_force_4_vz	ground_force_4_px	ground_force_4_py	ground_force_4_pz	ground_moment_4_mx	ground_moment_4_my	ground_moment_4_mz
      4.91000000	      0.00000000	     -0.00000000	      0.00000000	      0.00000000	      0.00000000	      0.00000000	      0.00000000	      0.00000000	      0.00000000	    -19.81594658	    126.46493530	   -614.44512939	   -216.48012743	  -1229.97939152	      0.00000000	      0.00000000	      0.00000000	   3164.40864268	     -7.34069129	   -113.61465422	   -559.82104492	   -245.99516864	   -684.98949354	      0.00000000	     -0.00000000	     -0.00000000	  -4339.28224302	      0.00000000	     -0.00000000	      0.00000000	      0.00000000	      0.00000000	      0.00000000	      0.00000000	      0.00000000	      0.00000000
      4.92000000	      0.00000000	     -0.00000000	      0.00000000	      0.00000000	      0.00000000	      0.00000000	      0.00000000	      0.00000000	      0.00000000	    -19.90463829	    122.15382385	   -593.07379150	   -216.84485569	  -1230.62991322	      0.00000000	      0.00000000	      0.00000000	   2986.74092374	     -0.77692570	   -109.45288845	   -556.58990479	   -249.66844527	   -686.84114770	      0.00000000	      0.00000000	     -0.00000000	  -4325.01403512	      0.00000000	     -0.00000000	      0.00000000	      0.00000000	      0.00000000	      0.00000000	      0.00000000	      0.00000000	      0.00000000
      4.93000000	      0.00000000	     -0.00000000	      0.00000000	      0.00000000	      0.00000000	      0.00000000	      0.00000000	      0.00000000	      0.00000000	    -19.04764175	    119.55699158	   -582.70629883	   -219.10820211	  -1230.12928839	      0.00000000	      0.00000000	      0.00000000	   3246.42130751	      3.44941817	   -106.85688797	   -554.98065186	   -252.77026705	   -687.75502480	      0.00000000	      0.00000000	     -0.00000000	  -4263.26980427	      0.00000000	     -0.00000000	      0.00000000	      0.00000000	      0.00000000	      0.00000000	      0.00000000	      0.00000000	      0.00000000
      4.94000000	      0.00000000	     -0.00000000	      0.00000000	      0.00000000	      0.00000000	      0.00000000	      0.00000000	      0.00000000	      0.00000000	    -17.19444466	    117.16997528	   -580.98095703	   -222.74753519	  -1228.95500101	      0.00000000	      0.00000000	      0.00000000	   3591.86197108	      0.58810796	   -105.93041995	   -548.38787842	   -255.06691006	   -688.39224076	      0.00000000	      0.00000000	     -0.00000000	  -4347.85190511	      0.00000000	     -0.00000000	      0.00000000	      0.00000000	      0.00000000	      0.00000000	      0.00000000	      0.00000000	      0.00000000
      4.95000000	      0.00000000	     -0.00000000	      0.00000000	      0.00000000	      0.00000000	      0.00000000	      0.00000000	      0.00000000	      0.00000000	    -13.43791580	    114.11975098	   -587.17083740	   -227.01419419	  -1227.89083863	      0.00000000	      0.00000000	      0.00000000	   3811.62559561	     -1.66224100	   -103.98720543	   -540.35791016	   -257.17177792	   -688.85755885	      0.00000000	      0.00000000	     -0.00000000	  -4564.91017854	      0.00000000	     -0.00000000	      0.00000000	      0.00000000	      0.00000000	      0.00000000	      0.00000000	      0.00000000	      0.00000000
      4.96000000	      0.00000000	     -0.00000000	      0.00000000	      0.00000000	      0.00000000	      0.00000000	      0.00000000	      0.00000000	      0.00000000	     -8.90303421	    111.16932678	   -588.91625977	   -231.12831974	  -1227.28310576	      0.00000000	      0.00000000	     -0.00000000	   4171.79292130	     -1.86293096	   -102.52707664	   -528.74383545	   -259.79489119	   -690.09174891	      0.00000000	      0.00000000	     -0.00000000	  -4527.31064022	      0.00000000	     -0.00000000	      0.00000000	      0.00000000	      0.00000000	      0.00000000	      0.00000000	      0.00000000	      0.00000000
      4.97000000	      0.00000000	     -0.00000000	      0.00000000	      0.00000000	      0.00000000	      0.00000000	      0.00000000	      0.00000000	      0.00000000	     -7.29809189	    109.18473816	   -577.25213623	   -233.51285297	  -1227.22075095	      0.00000000	      0.00000000	      0.00000000	   4070.98467685	      0.23367776	   -100.86337281	   -518.96704102	   -262.53653586	   -690.76903982	      0.00000000	      0.00000000	     -0.00000000	  -4465.70920327	      0.00000000	     -0.00000000	      0.00000000	      0.00000000	      0.00000000	      0.00000000	      0.00000000	      0.00000000	      0.00000000
      4.98000000	      0.00000000	     -0.00000000	      0.00000000	      0.00000000	      0.00000000	      0.00000000	      0.00000000	      0.00000000	      0.00000000	     -8.93722057	    107.25618744	   -562.90435791	   -235.78319058	  -1227.58327472	      0.00000000	      0.00000000	      0.00000000	   3872.50848837	      4.00017835	    -97.82009905	   -512.20544434	   -265.89310985	   -691.59442016	      0.00000000	      0.00000000	     -0.00000000	  -4428.86362320	      0.00000000	     -0.00000000	      0.00000000	      0.00000000	      0.00000000	      0.00000000	      0.00000000	      0.00000000	      0.00000000
      4.99000000	      0.00000000	     -0.00000000	      0.00000000	      0.00000000	      0.00000000	      0.00000000	      0.00000000	      0.00000000	      0.00000000	     -9.32562542	    106.22803497	   -543.48284912	   -236.46427264	  -1227.42143955	      0.00000000	      0.00000000	      0.00000000	   3572.54474572	      6.77417629	    -94.26352721	   -501.98406982	   -268.32224168	   -691.79220802	      0.00000000	      0.00000000	     -0.00000000	  -4191.12116094	      0.00000000	     -0.00000000	      0.00000000	      0.00000000	      0.00000000	      0.00000000	      0.00000000	      0.00000000	      0.00000000
      5.00000000	      0.00000000	     -0.00000000	      0.00000000	      0.00000000	      0.00000000	      0.00000000	      0.00000000	      0.00000000	      0.00000000	     -9.35688305	    104.55727386	   -528.64093018	   -238.60431603	  -1227.35431871	      0.00000000	      0.00000000	      0.00000000	   3293.04706330	      6.42658307	    -92.19314603	   -485.93191528	   -270.20716820	   -692.59277326	      0.00000000	      0.00000000	     -0.00000000	  -4081.72906598	      0.00000000	     -0.00000000	      0.00000000	      0.00000000	      0.00000000	      0.00000000	      0.00000000	      0.00000000	      0.00000000
      5.01000000	      0.00000000	     -0.00000000	      0.00000000	      0.00000000	      0.00000000	      0.00000000	      0.00000000	      0.00000000	      0.00000000	     -8.23939514	    102.67822266	   -517.25463867	   -242.98058928	  -1226.33076097	      0.00000000	      0.00000000	      0.00000000	   3187.82393304	      5.43629929	    -88.04290795	   -471.07641602	   -272.43450633	   -693.82015006	      0.00000000	      0.00000000	     -0.00000000	  -4048.90955171	      0.00000000	     -0.00000000	      0.00000000	      0.00000000	      0.00000000	      0.00000000	      0.00000000	      0.00000000	      0.00000000
      5.02000000	      0.00000000	     -0.00000000	      0.00000000	      0.00000000	      0.00000000	      0.00000000	      0.00000000	      0.00000000	      0.00000000	     -7.20061445	    100.18901825	   -507.82165527	   -246.09005270	  -1226.26864876	      0.00000000	      0.00000000	      0.00000000	   3005.47957671	      5.76619737	    -83.56445338	   -455.19445801	   -275.10188835	   -694.65179477	      0.00000000	      0.00000000	     -0.00000000	  -4061.64127681	      0.00000000	     -0.00000000	      0.00000000	      0.00000000	      0.00000000	      0.00000000	      0.00000000	      0.00000000	      0.00000000
      5.03000000	      0.00000000	     -0.00000000	      0.00000000	      0.00000000	      0.00000000	      0.00000000	      0.00000000	      0.00000000	      0.00000000	     -6.25077105	     97.89086914	   -495.73895264	   -249.25554312	  -1224.51677769	      0.00000000	      0.00000000	      0.00000000	   2968.21334805	      6.41267377	    -80.55545835	   -441.40399170	   -277.55496447	   -695.09199827	      0.00000000	      0.00000000	     -0.00000000	  -4010.91445339	      0.00000000	     -0.00000000	      0.00000000	      0.00000000	      0.00000000	      0.00000000	      0.00000000	      0.00000000	      0.00000000
      5.04000000	      0.00000000	     -0.00000000	      0.00000000	      0.00000000	      0.00000000	      0.00000000	      0.00000000	      0.00000000	      0.00000000	     -6.38591957	     94.76034546	   -483.75366211	   -252.08155219	  -1224.30916322	      0.00000000	      0.00000000	      0.00000000	   2956.07860347	      6.73631949	    -77.51511413	   -427.03485107	   -280.34732706	   -696.39508734	      0.00000000	      0.00000000	     -0.00000000	  -3882.27109210	      0.00000000	     -0.00000000	      0.00000000	      0.00000000	      0.00000000	      0.00000000	      0.00000000	      0.00000000	      0.00000000
      5.05000000	      0.00000000	     -0.00000000	      0.00000000	      0.00000000	      0.00000000	      0.00000000	      0.00000000	      0.00000000	      0.00000000	     -7.11057091	     91.12271881	   -473.36514282	   -255.18084402	  -1223.76170882	      0.00000000	      0.00000000	      0.00000000	   3064.83645989	      7.68650684	    -74.15902744	   -416.51712036	   -283.02563253	   -696.25240847	      0.00000000	      0.00000000	     -0.00000000	  -3741.16033036	      0.00000000	     -0.00000000	      0.00000000	      0.00000000	      0.00000000	      0.00000000	      0.00000000	      0.00000000	      0.00000000
      5.06000000	      0.00000000	     -0.00000000	      0.00000000	      0.00000000	      0.00000000	      0.00000000	      0.00000000	      0.00000000	      0.00000000	     -7.94449091	     88.63166046	   -459.73513794	   -258.80928224	  -1222.84306521	      0.00000000	      0.00000000	      0.00000000	   2988.94535752	      8.21891856	    -70.92713201	   -402.77923584	   -285.87305634	   -698.37958855	      0.00000000	      0.00000000	     -0.00000000	  -3740.59915515	      0.00000000	     -0.00000000	      0.00000000	      0.00000000	      0.00000000	      0.00000000	      0.00000000	      0.00000000	      0.00000000
      5.07000000	      0.00000000	     -0.00000000	      0.00000000	      0.00000000	      0.00000000	      0.00000000	      0.00000000	      0.00000000	      0.00000000	     -8.05145073	     85.68113708	   -449.79342651	   -262.51669512	  -1222.70925890	      0.00000000	      0.00000000	      0.00000000	   2804.23809031	      8.09930315	    -67.71183049	   -393.02255249	   -288.94863008	   -699.03658011	      0.00000000	      0.00000000	     -0.00000000	  -3524.23966052	      0.00000000	     -0.00000000	      0.00000000	      0.00000000	      0.00000000	      0.00000000	      0.00000000	      0.00000000	      0.00000000
      5.08000000	      0.00000000	     -0.00000000	      0.00000000	      0.00000000	      0.00000000	      0.00000000	      0.00000000	      0.00000000	      0.00000000	     -6.09736109	     82.71694183	   -440.29248047	   -267.73597318	  -1220.94618057	      0.00000000	      0.00000000	      0.00000000	   2972.78649499	      8.80525121	    -63.40698662	   -381.36364746	   -291.50571608	   -700.98426191	      0.00000000	      0.00000000	     -0.00000000	  -3508.72017559	      0.00000000	     -0.00000000	      0.00000000	      0.00000000	      0.00000000	      0.00000000	      0.00000000	      0.00000000	      0.00000000
      5.09000000	      0.00000000	     -0.00000000	      0.00000000	      0.00000000	      0.00000000	      0.00000000	      0.00000000	      0.00000000	      0.00000000	     -4.72815704	     80.18648529	   -432.86239624	   -271.91160230	  -1220.46297298	      0.00000000	      0.00000000	      0.00000000	   2949.62336017	      9.63152715	    -60.70405621	   -370.89184570	   -294.44335086	   -700.89836139	      0.00000000	      0.00000000	     -0.00000000	  -3520.75412304	      0.00000000	     -0.00000000	      0.00000000	      0.00000000	      0.00000000	      0.00000000	      0.00000000	      0.00000000	      0.00000000
